<svg width="134" height="134" viewBox="0 0 134 134" fill="none" xmlns="http://www.w3.org/2000/svg">
<circle cx="67" cy="67" r="67" fill="#8BC53F" fill-opacity="0.75"/>
<path fill-rule="evenodd" clip-rule="evenodd" d="M28 28.2845C28 35.9571 29.519 40.593 33.3148 44.5044C36.8442 48.1408 40.6393 49.9414 45.8671 50.4581L50.25 50.8918L50.4373 58.6959L50.6239 66.5H39.3123H28V69.8209V73.1418H50.25H72.5V69.8209V66.5H64.5299H56.5597V58.5299V50.5597H59.2377C62.3779 50.5597 66.1863 49.1018 68.4273 47.0409C71.3131 44.3881 72.4694 40.8016 72.4854 34.4534L72.5 28.6418L66.0243 28.6498C60.3927 28.6571 59.1806 28.8683 56.7257 30.2717C55.1729 31.1597 53.903 31.6279 53.903 31.3125C53.903 30.997 52.5547 29.391 50.9069 27.7432C46.6814 23.5176 42.2891 22 34.2845 22H28V28.2845ZM42.8099 29.5391C46.2231 30.9651 49.0346 34.6825 49.9179 38.9372C50.3443 40.9909 50.5283 43.101 50.3264 43.6263C49.4782 45.8367 41.2856 43.6987 38.1513 40.4489C35.5723 37.7756 34.6418 35.4257 34.6418 31.5874V28.6418H37.6518C39.3076 28.6418 41.6283 29.0456 42.8099 29.5391ZM65.8582 37.4601C65.8582 41.0812 64.4893 43.0133 61.2349 43.9883C57.7492 45.0331 56.5544 44.4659 56.5829 41.7799C56.6294 37.5305 59.4622 34.6891 63.6996 34.6426C65.8024 34.6201 65.8582 34.6931 65.8582 37.4601ZM91.5739 75.2625C90.6713 76.4707 86.6915 82.344 82.7304 88.3143L75.528 99.1703L74.1797 97.569C73.4385 96.6889 70.9604 93.6716 68.6723 90.8647L64.5126 85.7612H46.2563H28V88.75V91.7388L44.7705 91.7687L61.541 91.7986L67.8215 99.7701C73.218 106.618 74.3404 107.713 75.7917 107.544C77.4368 107.352 78.6397 105.718 93.9955 82.8116C94.7998 81.6127 95.1279 81.8784 98.7045 86.6306L102.549 91.7388H109.774H117V88.75V85.7612L111.521 85.7592L106.041 85.7572L101.392 79.6155C95.9176 72.384 94.2705 71.6534 91.5739 75.2625ZM28 107.679V111H40.6194H53.2388V107.679V104.358H40.6194H28V107.679Z" fill="black"/>
</svg>
