<svg width="284" height="71" viewBox="0 0 284 71" fill="none" xmlns="http://www.w3.org/2000/svg">
<path d="M20.9098 31.5431C22.6558 31.9152 24.0584 32.7882 25.1175 34.1622C26.1766 35.5075 26.7061 37.0532 26.7061 38.7993C26.7061 41.3182 25.8188 43.3218 24.0441 44.8103C22.298 46.2701 19.8507 47 16.702 47H2.66202V16.859H16.2298C19.2925 16.859 21.6826 17.5603 23.4 18.9629C25.1461 20.3655 26.0191 22.2689 26.0191 24.6734C26.0191 26.448 25.5468 27.9222 24.6022 29.0957C23.6863 30.2693 22.4555 31.0851 20.9098 31.5431ZM10.0041 29.0528H14.8129C16.0151 29.0528 16.931 28.7952 17.5608 28.28C18.2191 27.7361 18.5483 26.949 18.5483 25.9185C18.5483 24.888 18.2191 24.1009 17.5608 23.557C16.931 23.0132 16.0151 22.7412 14.8129 22.7412H10.0041V29.0528ZM15.414 41.0749C16.6448 41.0749 17.5894 40.8029 18.2477 40.2591C18.9347 39.6866 19.2782 38.8708 19.2782 37.8117C19.2782 36.7526 18.9204 35.9225 18.2048 35.3214C17.5178 34.7203 16.5589 34.4198 15.3281 34.4198H10.0041V41.0749H15.414ZM57.0695 16.859V47H49.7274V34.5915H38.3065V47H30.9645V16.859H38.3065V28.6664H49.7274V16.859H57.0695ZM76.6244 47.3006C73.7906 47.3006 71.1859 46.6422 68.8101 45.3255C66.4629 44.0088 64.588 42.1769 63.1855 39.8297C61.8115 37.4539 61.1246 34.7919 61.1246 31.8436C61.1246 28.8954 61.8115 26.2477 63.1855 23.9005C64.588 21.5534 66.4629 19.7214 68.8101 18.4047C71.1859 17.088 73.7906 16.4297 76.6244 16.4297C79.4582 16.4297 82.0486 17.088 84.3958 18.4047C86.7716 19.7214 88.6321 21.5534 89.9774 23.9005C91.3514 26.2477 92.0384 28.8954 92.0384 31.8436C92.0384 34.7919 91.3514 37.4539 89.9774 39.8297C88.6035 42.1769 86.7429 44.0088 84.3958 45.3255C82.0486 46.6422 79.4582 47.3006 76.6244 47.3006ZM76.6244 40.6026C79.0288 40.6026 80.9466 39.8011 82.3778 38.1981C83.8376 36.5952 84.5675 34.477 84.5675 31.8436C84.5675 29.1816 83.8376 27.0635 82.3778 25.4891C80.9466 23.8862 79.0288 23.0847 76.6244 23.0847C74.1914 23.0847 72.2449 23.8719 70.7851 25.4462C69.3539 27.0205 68.6383 29.153 68.6383 31.8436C68.6383 34.5057 69.3539 36.6381 70.7851 38.2411C72.2449 39.8154 74.1914 40.6026 76.6244 40.6026ZM110.378 47.3006C107.544 47.3006 104.939 46.6422 102.563 45.3255C100.216 44.0088 98.3413 42.1769 96.9388 39.8297C95.5648 37.4539 94.8778 34.7919 94.8778 31.8436C94.8778 28.8954 95.5648 26.2477 96.9388 23.9005C98.3413 21.5534 100.216 19.7214 102.563 18.4047C104.939 17.088 107.544 16.4297 110.378 16.4297C113.211 16.4297 115.802 17.088 118.149 18.4047C120.525 19.7214 122.385 21.5534 123.731 23.9005C125.105 26.2477 125.792 28.8954 125.792 31.8436C125.792 34.7919 125.105 37.4539 123.731 39.8297C122.357 42.1769 120.496 44.0088 118.149 45.3255C115.802 46.6422 113.211 47.3006 110.378 47.3006ZM110.378 40.6026C112.782 40.6026 114.7 39.8011 116.131 38.1981C117.591 36.5952 118.321 34.477 118.321 31.8436C118.321 29.1816 117.591 27.0635 116.131 25.4891C114.7 23.8862 112.782 23.0847 110.378 23.0847C107.945 23.0847 105.998 23.8719 104.538 25.4462C103.107 27.0205 102.392 29.153 102.392 31.8436C102.392 34.5057 103.107 36.6381 104.538 38.2411C105.998 39.8154 107.945 40.6026 110.378 40.6026ZM164.01 16.859V47H156.668V28.924L149.927 47H144.002L137.218 28.8811V47H129.876V16.859H138.549L147.008 37.7259L155.38 16.859H164.01ZM176.632 16.859V47H169.29V16.859H176.632ZM180.708 31.8866C180.708 28.9097 181.352 26.262 182.64 23.9434C183.928 21.5963 185.717 19.7787 188.007 18.4906C190.325 17.1739 192.944 16.5155 195.864 16.5155C199.442 16.5155 202.505 17.4601 205.052 19.3493C207.6 21.2385 209.303 23.8146 210.162 27.0778H202.09C201.489 25.8183 200.63 24.8594 199.514 24.2011C198.426 23.5427 197.181 23.2135 195.778 23.2135C193.517 23.2135 191.685 24.0007 190.282 25.575C188.88 27.1493 188.178 29.2532 188.178 31.8866C188.178 34.52 188.88 36.6238 190.282 38.1981C191.685 39.7725 193.517 40.5596 195.778 40.5596C197.181 40.5596 198.426 40.2304 199.514 39.5721C200.63 38.9137 201.489 37.9548 202.09 36.6954H210.162C209.303 39.9585 207.6 42.5347 205.052 44.4238C202.505 46.2844 199.442 47.2147 195.864 47.2147C192.944 47.2147 190.325 46.5706 188.007 45.2826C185.717 43.9659 183.928 42.1482 182.64 39.8297C181.352 37.5112 180.708 34.8635 180.708 31.8866ZM233.421 41.676H222.172L220.368 47H212.683L223.588 16.859H232.09L242.995 47H235.224L233.421 41.676ZM231.532 36.0084L227.796 24.9739L224.104 36.0084H231.532ZM280.449 16.859V47H273.107V28.924L266.366 47H260.44L253.657 28.8811V47H246.315V16.859H254.988L263.446 37.7259L271.818 16.859H280.449Z" fill="url(#paint0_linear_32_2002)"/>
<path d="M10.3098 57.7717C10.3098 58.3732 10.1717 58.9254 9.89558 59.4283C9.61947 59.9214 9.19545 60.3208 8.6235 60.6265C8.05156 60.9322 7.34156 61.085 6.4935 61.085H4.92558V64.8125H2.39621V54.4288H6.4935C7.32183 54.4288 8.02197 54.5717 8.59392 54.8577C9.16586 55.1437 9.59482 55.5381 9.88079 56.041C10.1668 56.544 10.3098 57.1208 10.3098 57.7717ZM6.30121 59.0733C6.7844 59.0733 7.14433 58.9599 7.381 58.7331C7.61767 58.5063 7.736 58.1858 7.736 57.7717C7.736 57.3575 7.61767 57.037 7.381 56.8102C7.14433 56.5834 6.7844 56.47 6.30121 56.47H4.92558V59.0733H6.30121ZM26.0632 57.9344C26.3591 57.4808 26.7288 57.1258 27.1726 56.8694C27.6163 56.6031 28.1094 56.47 28.6518 56.47V59.1473H27.9566C27.3254 59.1473 26.8521 59.2853 26.5366 59.5615C26.221 59.8277 26.0632 60.301 26.0632 60.9815V64.8125H23.5338V56.5587H26.0632V57.9344ZM43.0401 55.7008C42.5964 55.7008 42.2315 55.5726 41.9455 55.3163C41.6694 55.05 41.5314 54.7246 41.5314 54.34C41.5314 53.9456 41.6694 53.6201 41.9455 53.3637C42.2315 53.0975 42.5964 52.9644 43.0401 52.9644C43.474 52.9644 43.829 53.0975 44.1051 53.3637C44.3911 53.6201 44.5341 53.9456 44.5341 54.34C44.5341 54.7246 44.3911 55.05 44.1051 55.3163C43.829 55.5726 43.474 55.7008 43.0401 55.7008ZM44.2974 56.5587V64.8125H41.768V56.5587H44.2974ZM61.7504 62.4458L63.5402 56.5587H66.2323L63.3036 64.8125H60.1825L57.2538 56.5587H59.9606L61.7504 62.4458ZM78.7013 60.6708C78.7013 59.8228 78.8591 59.0783 79.1747 58.4373C79.5001 57.7963 79.9389 57.3033 80.4911 56.9581C81.0433 56.613 81.6597 56.4404 82.3401 56.4404C82.9219 56.4404 83.4297 56.5587 83.8636 56.7954C84.3074 57.0321 84.6476 57.3427 84.8842 57.7273V56.5587H87.4136V64.8125H84.8842V63.644C84.6377 64.0285 84.2926 64.3392 83.8488 64.5758C83.4149 64.8125 82.9071 64.9308 82.3253 64.9308C81.6547 64.9308 81.0433 64.7583 80.4911 64.4131C79.9389 64.0581 79.5001 63.5601 79.1747 62.9192C78.8591 62.2683 78.7013 61.5189 78.7013 60.6708ZM84.8842 60.6856C84.8842 60.0545 84.7067 59.5565 84.3517 59.1917C84.0066 58.8268 83.5826 58.6444 83.0797 58.6444C82.5767 58.6444 82.1478 58.8268 81.7928 59.1917C81.4476 59.5467 81.2751 60.0397 81.2751 60.6708C81.2751 61.3019 81.4476 61.8049 81.7928 62.1796C82.1478 62.5444 82.5767 62.7269 83.0797 62.7269C83.5826 62.7269 84.0066 62.5444 84.3517 62.1796C84.7067 61.8147 84.8842 61.3167 84.8842 60.6856ZM105.751 62.6677V64.8125H104.464C103.547 64.8125 102.832 64.5906 102.319 64.1469C101.807 63.6933 101.55 62.9586 101.55 61.9429V58.6592H100.544V56.5587H101.55V54.5471H104.08V56.5587H105.736V58.6592H104.08V61.9725C104.08 62.219 104.139 62.3965 104.257 62.505C104.375 62.6135 104.573 62.6677 104.849 62.6677H105.751ZM126.848 60.5525C126.848 60.7892 126.833 61.0357 126.803 61.2921H121.079C121.118 61.8049 121.281 62.1993 121.567 62.4754C121.863 62.7417 122.223 62.8748 122.647 62.8748C123.278 62.8748 123.717 62.6085 123.963 62.076H126.655C126.517 62.6184 126.266 63.1065 125.901 63.5404C125.546 63.9743 125.097 64.3145 124.555 64.561C124.013 64.8076 123.406 64.9308 122.736 64.9308C121.927 64.9308 121.207 64.7583 120.576 64.4131C119.945 64.068 119.452 63.5749 119.097 62.934C118.742 62.293 118.564 61.5435 118.564 60.6856C118.564 59.8277 118.737 59.0783 119.082 58.4373C119.437 57.7963 119.93 57.3033 120.561 56.9581C121.192 56.613 121.917 56.4404 122.736 56.4404C123.534 56.4404 124.244 56.6081 124.866 56.9433C125.487 57.2786 125.97 57.7569 126.315 58.3781C126.67 58.9994 126.848 59.7242 126.848 60.5525ZM124.259 59.8869C124.259 59.453 124.111 59.1078 123.815 58.8515C123.519 58.5951 123.15 58.4669 122.706 58.4669C122.282 58.4669 121.922 58.5901 121.626 58.8367C121.34 59.0832 121.163 59.4333 121.094 59.8869H124.259ZM157.661 62.86H160.974V64.8125H155.131V54.4288H157.661V62.86ZM175.36 55.7008C174.916 55.7008 174.551 55.5726 174.265 55.3163C173.989 55.05 173.851 54.7246 173.851 54.34C173.851 53.9456 173.989 53.6201 174.265 53.3637C174.551 53.0975 174.916 52.9644 175.36 52.9644C175.794 52.9644 176.149 53.0975 176.425 53.3637C176.711 53.6201 176.854 53.9456 176.854 54.34C176.854 54.7246 176.711 55.05 176.425 55.3163C176.149 55.5726 175.794 55.7008 175.36 55.7008ZM176.617 56.5587V64.8125H174.088V56.5587H176.617ZM200.889 56.47C201.914 56.47 202.728 56.7806 203.33 57.4019C203.941 58.0231 204.247 58.886 204.247 59.9904V64.8125H201.732V60.3306C201.732 59.7981 201.589 59.3889 201.303 59.1029C201.027 58.8071 200.642 58.6592 200.149 58.6592C199.656 58.6592 199.267 58.8071 198.981 59.1029C198.705 59.3889 198.567 59.7981 198.567 60.3306V64.8125H196.052V60.3306C196.052 59.7981 195.909 59.3889 195.623 59.1029C195.347 58.8071 194.962 58.6592 194.469 58.6592C193.976 58.6592 193.587 58.8071 193.301 59.1029C193.025 59.3889 192.887 59.7981 192.887 60.3306V64.8125H190.357V56.5587H192.887V57.5942C193.143 57.249 193.478 56.9778 193.892 56.7806C194.307 56.5735 194.775 56.47 195.298 56.47C195.919 56.47 196.471 56.6031 196.954 56.8694C197.447 57.1356 197.832 57.5153 198.108 58.0083C198.394 57.5547 198.784 57.1849 199.277 56.899C199.77 56.613 200.307 56.47 200.889 56.47ZM219.195 55.7008C218.751 55.7008 218.386 55.5726 218.1 55.3163C217.824 55.05 217.686 54.7246 217.686 54.34C217.686 53.9456 217.824 53.6201 218.1 53.3637C218.386 53.0975 218.751 52.9644 219.195 52.9644C219.629 52.9644 219.984 53.0975 220.26 53.3637C220.546 53.6201 220.689 53.9456 220.689 54.34C220.689 54.7246 220.546 55.05 220.26 55.3163C219.984 55.5726 219.629 55.7008 219.195 55.7008ZM220.452 56.5587V64.8125H217.923V56.5587H220.452ZM238.793 62.6677V64.8125H237.506C236.589 64.8125 235.874 64.5906 235.361 64.1469C234.848 63.6933 234.592 62.9586 234.592 61.9429V58.6592H233.586V56.5587H234.592V54.5471H237.121V56.5587H238.778V58.6592H237.121V61.9725C237.121 62.219 237.181 62.3965 237.299 62.505C237.417 62.6135 237.614 62.6677 237.891 62.6677H238.793ZM259.889 60.5525C259.889 60.7892 259.875 61.0357 259.845 61.2921H254.121C254.16 61.8049 254.323 62.1993 254.609 62.4754C254.905 62.7417 255.265 62.8748 255.689 62.8748C256.32 62.8748 256.759 62.6085 257.005 62.076H259.697C259.559 62.6184 259.308 63.1065 258.943 63.5404C258.588 63.9743 258.139 64.3145 257.597 64.561C257.054 64.8076 256.448 64.9308 255.777 64.9308C254.969 64.9308 254.249 64.7583 253.618 64.4131C252.987 64.068 252.494 63.5749 252.139 62.934C251.784 62.293 251.606 61.5435 251.606 60.6856C251.606 59.8277 251.779 59.0783 252.124 58.4373C252.479 57.7963 252.972 57.3033 253.603 56.9581C254.234 56.613 254.959 56.4404 255.777 56.4404C256.576 56.4404 257.286 56.6081 257.907 56.9433C258.529 57.2786 259.012 57.7569 259.357 58.3781C259.712 58.9994 259.889 59.7242 259.889 60.5525ZM257.301 59.8869C257.301 59.453 257.153 59.1078 256.857 58.8515C256.561 58.5951 256.192 58.4669 255.748 58.4669C255.324 58.4669 254.964 58.5901 254.668 58.8367C254.382 59.0832 254.204 59.4333 254.135 59.8869H257.301ZM272.628 60.6708C272.628 59.8228 272.786 59.0783 273.101 58.4373C273.427 57.7963 273.866 57.3033 274.418 56.9581C274.97 56.613 275.586 56.4404 276.267 56.4404C276.809 56.4404 277.302 56.5538 277.746 56.7806C278.2 57.0074 278.555 57.3131 278.811 57.6977V53.8667H281.34V64.8125H278.811V63.6292C278.574 64.0236 278.234 64.3392 277.79 64.5758C277.357 64.8125 276.849 64.9308 276.267 64.9308C275.586 64.9308 274.97 64.7583 274.418 64.4131C273.866 64.0581 273.427 63.5601 273.101 62.9192C272.786 62.2683 272.628 61.5189 272.628 60.6708ZM278.811 60.6856C278.811 60.0545 278.634 59.5565 278.279 59.1917C277.933 58.8268 277.509 58.6444 277.006 58.6444C276.504 58.6444 276.075 58.8268 275.72 59.1917C275.374 59.5467 275.202 60.0397 275.202 60.6708C275.202 61.3019 275.374 61.8049 275.72 62.1796C276.075 62.5444 276.504 62.7269 277.006 62.7269C277.509 62.7269 277.933 62.5444 278.279 62.1796C278.634 61.8147 278.811 61.3167 278.811 60.6856Z" fill="white"/>
<defs>
<linearGradient id="paint0_linear_32_2002" x1="142" y1="0" x2="142" y2="64" gradientUnits="userSpaceOnUse">
<stop offset="0.509912" stop-color="#8BC53F" stop-opacity="0.75"/>
<stop offset="1" stop-color="#A2A2A2"/>
</linearGradient>
</defs>
</svg>
