<svg width="134" height="134" viewBox="0 0 134 134" fill="none" xmlns="http://www.w3.org/2000/svg">
<circle cx="67" cy="67" r="67" fill="black"/>
<path fill-rule="evenodd" clip-rule="evenodd" d="M0 67C0 104.003 29.9969 134 67 134C104.003 134 134 104.003 134 67C134 29.9969 104.003 0 67 0C29.9969 0 0 29.9969 0 67ZM117.116 20.6414C116.734 22.3171 115.138 29.7778 113.57 37.2222C110.501 51.7903 107.796 59.5204 105.185 61.1798C101.507 63.5174 85.2632 61.7767 85.2849 59.048C85.2917 58.2101 88.3371 53.6081 92.0526 48.822C95.768 44.0346 98.8081 39.2688 98.8081 38.232C98.8081 34.1727 93.8514 37.6567 86.9931 46.5386C80.358 55.1308 79.9939 55.9741 82.2043 57.6078C84.489 59.2984 84.4863 59.5488 82.1461 63.1884C80.7993 65.2851 78.4874 69.5893 77.008 72.7525C74.1859 78.7852 72.2057 79.9479 70.8346 76.3732C69.9642 74.1047 75.1659 61.7645 77.9772 59.4324C79.2928 58.3401 79.0993 56.8187 77.0784 52.3683C73.8854 45.334 73.6635 36.1665 76.6155 33.2144C79.8965 29.9334 87.969 26.1354 101.144 21.6728C115.84 16.6972 118.046 16.5537 117.116 20.6414ZM43.2712 32.9112C57.4359 37.9829 61.5371 41.6266 60.4719 48.1913C60.0536 50.7657 58.8098 54.6801 57.708 56.8904C56.6048 59.1008 56.1609 60.9091 56.7212 60.9091C58.489 60.9091 64.0209 74.144 63.1749 76.3502C61.8633 79.7652 59.1048 77.4818 55.633 70.1091C52.9855 64.4892 52.6823 62.7431 53.9858 60.6546C55.3312 58.5025 54.8953 57.1314 51.2503 52.057C48.8301 48.688 45.8199 46.0202 44.4366 46.0202C40.8362 46.0202 41.3627 48.2278 46.697 55.4949C49.3025 59.0439 51.4343 62.287 51.4343 62.6998C51.4343 64.2767 38.929 65.2566 35.977 63.9126C32.6757 62.4075 29.8725 54.3323 26.4914 36.5861L25.369 30.6978C25.0473 29.01 26.5747 27.5526 28.2456 27.9532C30.2055 28.4229 36.9664 30.6535 43.2712 32.9112ZM31.1313 86.1079C31.1313 87.5494 31.9394 88.0624 33.5 87.6116C48.4836 83.283 47.7974 83.306 63.1248 86.5938C71.2108 88.329 78.302 90.159 78.8827 90.6625C79.462 91.1647 78.6566 93.2031 77.092 95.1928C74.8911 97.9905 72.9691 98.8541 68.5931 99.0111C67.9839 99.033 67.9376 99.9194 68.5413 100.005L69.0303 100.074C73.8096 100.748 77.4385 100.107 85.8818 97.0986C99.1194 92.3801 104.722 92.5385 105.313 97.6467C105.802 101.864 103.115 104.052 87.9798 111.759C79.3063 116.175 76.6385 116.902 69.6556 116.759C65.1605 116.667 56.6698 115.331 50.7887 113.79C36.3573 110.01 31.4507 110.071 30.8877 114.035C30.5046 116.73 29.6749 117.081 23.6869 117.081C19.9243 117.081 16.8503 114.076 16.764 110.315L16.5388 100.5L16.3302 91.4036C16.236 87.2981 19.5383 83.9192 23.6449 83.9192C29.637 83.9192 31.1313 84.3564 31.1313 86.1079Z" fill="#A8D46F"/>
</svg>
