<svg width="134" height="134" viewBox="0 0 134 134" fill="none" xmlns="http://www.w3.org/2000/svg">
<circle cx="67" cy="67" r="67" fill="#8BC53F" fill-opacity="0.75"/>
<path d="M47.4134 29L46.6115 32.8094H53.0524L52.2504 29H47.4134ZM48.1178 36.2378V38.9044H51.5462V36.2378H48.1178ZM42.2675 42.3328L40.7857 60.2368H44.0513L45.1941 44.9993H70.0588L69.6778 42.3328H42.2675ZM99.9251 46.7136V60.9229C101.07 61.0112 102.212 61.117 103.354 61.2402V46.7136H99.9251ZM48.3749 48.4278L47.489 60.2368H48.689C50.5942 60.2368 52.4115 61.052 54.2126 62.2643V48.4278H48.3749ZM57.6412 48.4278V64.4766L72.4977 66.1301V62.0739L70.5483 48.4278H57.6412ZM34.5945 63.6652C33.0708 63.6652 30.1581 64.9526 27.4754 67.0988C25.3978 68.7608 23.4272 70.8872 22 73.0349L25.2023 73.8355C29.0155 69.0412 34.893 65.9508 41.4512 65.9508C51.0877 65.9508 59.2562 72.6218 61.562 81.5692H65.4492C63.7099 78.0001 61.0538 73.9101 58.1499 70.5432C56.3729 68.4826 54.519 66.6977 52.8273 65.4766C51.1357 64.2553 49.6122 63.6652 48.6892 63.6652H34.5945ZM75.9261 63.6765V84.6167H82.0497C83.7801 78.8732 87.0392 74.9465 91.4065 72.9614C93.7511 71.8956 96.3562 71.3796 99.1654 71.3276C101.337 71.2872 103.631 71.5274 106.02 72.0018V65.0517C103.831 64.7124 101.242 64.4463 98.4713 64.2511C90.8131 63.7119 82.0606 63.6797 75.9261 63.6765ZM109.449 65.7362V69.3793H112.115V66.8251C111.357 66.3112 110.228 65.9478 109.449 65.7362ZM60.715 68.2685C60.7252 68.2805 60.7359 68.2919 60.7462 68.3039C64.5548 72.7195 67.9541 78.1302 69.7146 82.6625L70.6216 84.9977H62.14C62.1871 85.5634 62.2124 86.1348 62.2124 86.7119C62.2124 88.0791 62.0766 89.4162 61.8206 90.7117H72.4977V69.5802L60.715 68.2685ZM41.4514 69.3793C31.9125 69.3793 24.1188 77.1732 24.1188 86.7119C24.1188 96.2505 31.9125 104.045 41.4514 104.045C50.99 104.045 58.784 96.2505 58.784 86.7119C58.784 77.1732 50.99 69.3793 41.4514 69.3793ZM109.449 72.8077V75.4743H112.115V72.8077H109.449ZM41.4514 73.5696C48.7197 73.5696 54.5937 79.4436 54.5937 86.7119C54.5937 93.9802 48.7197 99.8542 41.4514 99.8542C34.1829 99.8542 28.3091 93.9802 28.3091 86.7119C28.3091 79.4436 34.1829 73.5696 41.4514 73.5696ZM100.04 74.7638C97.5841 74.7951 94.8269 75.195 92.8253 76.0824C89.618 77.5403 87.1733 80.1861 85.6463 84.6167H87.6596C90.3139 80.2897 95.0901 77.3789 100.497 77.3789C102.389 77.3793 104.264 77.7414 106.02 78.4456V75.5032C103.89 75.043 101.89 74.7941 100.04 74.7638ZM41.4514 76.998C36.0063 76.998 31.7375 81.267 31.7375 86.7119C31.7375 92.1568 36.0063 96.4258 41.4514 96.4258C46.8963 96.4258 51.1653 92.1568 51.1653 86.7119C51.1653 81.267 46.8963 76.998 41.4514 76.998ZM109.449 78.9027V80.3636C110.437 81.1011 111.332 81.9553 112.115 82.9077V78.9027H109.449ZM100.497 80.8074C94.1172 80.8074 88.878 86.0468 88.878 92.4259C88.878 98.8051 94.1172 104.045 100.497 104.045C106.876 104.045 112.115 98.8051 112.115 92.4259C112.115 86.0468 106.876 80.8074 100.497 80.8074ZM100.497 84.9977C104.595 84.9977 107.925 88.3278 107.925 92.4259C107.925 96.5241 104.595 99.8542 100.497 99.8542C96.3982 99.8542 93.0683 96.5241 93.0683 92.4259C93.0683 88.3278 96.3982 84.9977 100.497 84.9977ZM75.9261 88.0452V90.974L85.4515 92.5614C85.4509 92.5162 85.4496 92.4713 85.4496 92.4259C85.4496 90.9045 85.6817 89.4337 86.1093 88.0452H75.9261ZM100.497 88.4261C98.1928 88.4261 96.4967 90.1222 96.4967 92.4259C96.4967 94.7297 98.1928 96.4258 100.497 96.4258C102.8 96.4258 104.496 94.7297 104.496 92.4259C104.496 90.1222 102.8 88.4261 100.497 88.4261Z" fill="black"/>
</svg>
