<svg width="134" height="134" viewBox="0 0 134 134" fill="none" xmlns="http://www.w3.org/2000/svg">
<circle cx="67" cy="67" r="67" fill="#8BC53F" fill-opacity="0.75"/>
<path d="M88.3401 21L82.7636 38.3715L88.3816 39.5522L87.7659 42.6033L77.3816 52.1117L67.1464 43.5409L62.495 42.7275C64.1281 39.8795 65.4132 36.2147 65.7552 32.8711C67.7466 32.4179 72.6953 31.7432 74.916 30.8719C73.9229 28.8279 68.9146 27.512 65.2373 27.6292C64.8929 23.5127 63.4725 21.855 58.4493 22.0839C53.4258 22.3127 51.8963 23.3958 52.4552 29.3227C48.7057 30.1429 44.8837 31.8301 44.5572 34.7055C46.1213 34.6444 51.1077 34.1299 52.6508 34.107C52.7819 36.9093 53.5252 39.6414 54.6322 41.3363L47.6448 40.119L34 55.155L49.3715 66.2597L49.6945 69.6073L42.8995 112.486H50.5262L58.141 78.8489L67.6554 112.486H75.1023L74.3939 109.225L77.7912 112.486L90.3243 48.3853C91.32 47.483 92.1656 46.6997 92.7279 46.1371C92.7631 44.043 92.2237 42.3725 91.7155 41.2679L91.9085 40.2937L97.3218 41.4313L99 22.925L94.4595 36.5947L92.3036 36.1463L93.6222 21.7061L89.3358 35.5286L87.1065 35.065L88.3401 21ZM93.6222 21.7061L93.6226 21.7041H93.6222V21.7061ZM49.2721 46.7021L49.3405 59.4405L43.0801 54.7204L49.2721 46.7021ZM66.7676 50.9258L76.8786 60.0554C76.8786 60.0554 81.4483 56.1887 85.7972 52.3977L74.3818 109.151L65.8733 69.8935L66.7676 50.9256V50.9258Z" fill="black"/>
</svg>
