<svg width="192" height="48" viewBox="0 0 192 48" fill="none" xmlns="http://www.w3.org/2000/svg">
<path d="M14.1362 21.5503C15.3166 21.8018 16.2648 22.392 16.9808 23.3209C17.6968 24.2304 18.0548 25.2754 18.0548 26.4558C18.0548 28.1588 17.4549 29.5133 16.2552 30.5196C15.0747 31.5065 13.4202 32 11.2915 32H1.79968V11.623H10.9722C13.0428 11.623 14.6587 12.0971 15.8197 13.0453C17.0002 13.9935 17.5904 15.2804 17.5904 16.9059C17.5904 18.1057 17.2711 19.1023 16.6325 19.8957C16.0133 20.6891 15.1812 21.2406 14.1362 21.5503ZM6.7633 19.8667H10.0143C10.8271 19.8667 11.4463 19.6925 11.8721 19.3442C12.3171 18.9765 12.5397 18.4444 12.5397 17.7477C12.5397 17.0511 12.3171 16.5189 11.8721 16.1512C11.4463 15.7836 10.8271 15.5997 10.0143 15.5997H6.7633V19.8667ZM10.4207 27.9943C11.2528 27.9943 11.8914 27.8104 12.3365 27.4428C12.8009 27.0557 13.0331 26.5042 13.0331 25.7882C13.0331 25.0722 12.7913 24.511 12.3075 24.1046C11.843 23.6983 11.1948 23.4951 10.3627 23.4951H6.7633V27.9943H10.4207ZM38.5822 11.623V32H33.6185V23.6112H25.8973V32H20.9337V11.623H25.8973V19.6054H33.6185V11.623H38.5822ZM51.8024 32.2032C49.8866 32.2032 48.1256 31.7581 46.5195 30.8679C44.9327 29.9778 43.6652 28.7393 42.7169 27.1525C41.7881 25.5463 41.3236 23.7466 41.3236 21.7534C41.3236 19.7603 41.7881 17.9703 42.7169 16.3834C43.6652 14.7966 44.9327 13.5581 46.5195 12.668C48.1256 11.7778 49.8866 11.3327 51.8024 11.3327C53.7182 11.3327 55.4695 11.7778 57.0563 12.668C58.6625 13.5581 59.9203 14.7966 60.8298 16.3834C61.7587 17.9703 62.2231 19.7603 62.2231 21.7534C62.2231 23.7466 61.7587 25.5463 60.8298 27.1525C59.901 28.7393 58.6431 29.9778 57.0563 30.8679C55.4695 31.7581 53.7182 32.2032 51.8024 32.2032ZM51.8024 27.675C53.4279 27.675 54.7245 27.1331 55.692 26.0495C56.679 24.9658 57.1724 23.5338 57.1724 21.7534C57.1724 19.9538 56.679 18.5218 55.692 17.4574C54.7245 16.3738 53.4279 15.8319 51.8024 15.8319C50.1575 15.8319 48.8417 16.3641 47.8547 17.4284C46.8872 18.4927 46.4034 19.9344 46.4034 21.7534C46.4034 23.5531 46.8872 24.9948 47.8547 26.0785C48.8417 27.1428 50.1575 27.675 51.8024 27.675ZM74.6215 32.2032C72.7057 32.2032 70.9448 31.7581 69.3386 30.8679C67.7518 29.9778 66.4843 28.7393 65.5361 27.1525C64.6072 25.5463 64.1428 23.7466 64.1428 21.7534C64.1428 19.7603 64.6072 17.9703 65.5361 16.3834C66.4843 14.7966 67.7518 13.5581 69.3386 12.668C70.9448 11.7778 72.7057 11.3327 74.6215 11.3327C76.5373 11.3327 78.2886 11.7778 79.8754 12.668C81.4816 13.5581 82.7394 14.7966 83.6489 16.3834C84.5778 17.9703 85.0422 19.7603 85.0422 21.7534C85.0422 23.7466 84.5778 25.5463 83.6489 27.1525C82.7201 28.7393 81.4622 29.9778 79.8754 30.8679C78.2886 31.7581 76.5373 32.2032 74.6215 32.2032ZM74.6215 27.675C76.247 27.675 77.5436 27.1331 78.5112 26.0495C79.4981 24.9658 79.9915 23.5338 79.9915 21.7534C79.9915 19.9538 79.4981 18.5218 78.5112 17.4574C77.5436 16.3738 76.247 15.8319 74.6215 15.8319C72.9767 15.8319 71.6608 16.3641 70.6738 17.4284C69.7063 18.4927 69.2225 19.9344 69.2225 21.7534C69.2225 23.5531 69.7063 24.9948 70.6738 26.0785C71.6608 27.1428 72.9767 27.675 74.6215 27.675ZM110.88 11.623V32H105.917V19.7796L101.359 32H97.3536L92.7673 19.7506V32H87.8037V11.623H93.6671L99.3855 25.7302L105.046 11.623H110.88ZM119.413 11.623V32H114.45V11.623H119.413ZM122.169 21.7825C122.169 19.7699 122.604 17.9799 123.475 16.4125C124.346 14.8257 125.555 13.5968 127.103 12.726C128.671 11.8359 130.441 11.3908 132.415 11.3908C134.834 11.3908 136.905 12.0294 138.627 13.3066C140.349 14.5838 141.501 16.3254 142.081 18.5314H136.624C136.218 17.68 135.637 17.0317 134.882 16.5866C134.147 16.1416 133.305 15.919 132.357 15.919C130.828 15.919 129.59 16.4512 128.642 17.5155C127.693 18.5798 127.219 20.0021 127.219 21.7825C127.219 23.5628 127.693 24.9851 128.642 26.0495C129.59 27.1138 130.828 27.6459 132.357 27.6459C133.305 27.6459 134.147 27.4234 134.882 26.9783C135.637 26.5332 136.218 25.885 136.624 25.0335H142.081C141.501 27.2396 140.349 28.9812 138.627 30.2584C136.905 31.5162 134.834 32.1451 132.415 32.1451C130.441 32.1451 128.671 31.7097 127.103 30.8389C125.555 29.9488 124.346 28.7199 123.475 27.1525C122.604 25.585 122.169 23.795 122.169 21.7825ZM157.806 28.4006H150.201L148.981 32H143.786L151.158 11.623H156.906L164.279 32H159.025L157.806 28.4006ZM156.528 24.5691L154.003 17.1091L151.507 24.5691H156.528ZM189.599 11.623V32H184.635V19.7796L180.078 32H176.072L171.486 19.7506V32H166.523V11.623H172.386L178.104 25.7302L183.765 11.623H189.599Z" fill="url(#paint0_linear_32_2348)"/>
<path d="M6.97 39.24C6.97 39.6467 6.87667 40.02 6.69 40.36C6.50333 40.6933 6.21667 40.9633 5.83 41.17C5.44333 41.3767 4.96333 41.48 4.39 41.48H3.33V44H1.62V36.98H4.39C4.95 36.98 5.42333 37.0767 5.81 37.27C6.19667 37.4633 6.48667 37.73 6.68 38.07C6.87333 38.41 6.97 38.8 6.97 39.24ZM4.26 40.12C4.58667 40.12 4.83 40.0433 4.99 39.89C5.15 39.7367 5.23 39.52 5.23 39.24C5.23 38.96 5.15 38.7433 4.99 38.59C4.83 38.4367 4.58667 38.36 4.26 38.36H3.33V40.12H4.26ZM17.6202 39.35C17.8202 39.0433 18.0702 38.8033 18.3702 38.63C18.6702 38.45 19.0036 38.36 19.3702 38.36V40.17H18.9002C18.4736 40.17 18.1536 40.2633 17.9402 40.45C17.7269 40.63 17.6202 40.95 17.6202 41.41V44H15.9102V38.42H17.6202V39.35ZM29.0976 37.84C28.7976 37.84 28.5509 37.7533 28.3576 37.58C28.1709 37.4 28.0776 37.18 28.0776 36.92C28.0776 36.6533 28.1709 36.4333 28.3576 36.26C28.5509 36.08 28.7976 35.99 29.0976 35.99C29.3909 35.99 29.6309 36.08 29.8176 36.26C30.0109 36.4333 30.1076 36.6533 30.1076 36.92C30.1076 37.18 30.0109 37.4 29.8176 37.58C29.6309 37.7533 29.3909 37.84 29.0976 37.84ZM29.9476 38.42V44H28.2376V38.42H29.9476ZM41.7468 42.4L42.9568 38.42H44.7768L42.7968 44H40.6868L38.7068 38.42H40.5368L41.7468 42.4ZM53.2066 41.2C53.2066 40.6267 53.3132 40.1233 53.5266 39.69C53.7466 39.2567 54.0432 38.9233 54.4166 38.69C54.7899 38.4567 55.2066 38.34 55.6666 38.34C56.0599 38.34 56.4032 38.42 56.6966 38.58C56.9966 38.74 57.2266 38.95 57.3866 39.21V38.42H59.0966V44H57.3866V43.21C57.2199 43.47 56.9866 43.68 56.6866 43.84C56.3932 44 56.0499 44.08 55.6566 44.08C55.2032 44.08 54.7899 43.9633 54.4166 43.73C54.0432 43.49 53.7466 43.1533 53.5266 42.72C53.3132 42.28 53.2066 41.7733 53.2066 41.2ZM57.3866 41.21C57.3866 40.7833 57.2666 40.4467 57.0266 40.2C56.7932 39.9533 56.5066 39.83 56.1666 39.83C55.8266 39.83 55.5366 39.9533 55.2966 40.2C55.0632 40.44 54.9466 40.7733 54.9466 41.2C54.9466 41.6267 55.0632 41.9667 55.2966 42.22C55.5366 42.4667 55.8266 42.59 56.1666 42.59C56.5066 42.59 56.7932 42.4667 57.0266 42.22C57.2666 41.9733 57.3866 41.6367 57.3866 41.21ZM71.4937 42.55V44H70.6237C70.0037 44 69.5203 43.85 69.1737 43.55C68.827 43.2433 68.6537 42.7467 68.6537 42.06V39.84H67.9737V38.42H68.6537V37.06H70.3637V38.42H71.4837V39.84H70.3637V42.08C70.3637 42.2467 70.4037 42.3667 70.4837 42.44C70.5637 42.5133 70.697 42.55 70.8837 42.55H71.4937ZM85.7562 41.12C85.7562 41.28 85.7462 41.4467 85.7262 41.62H81.8562C81.8828 41.9667 81.9928 42.2333 82.1862 42.42C82.3862 42.6 82.6295 42.69 82.9162 42.69C83.3428 42.69 83.6395 42.51 83.8062 42.15H85.6262C85.5328 42.5167 85.3628 42.8467 85.1162 43.14C84.8762 43.4333 84.5728 43.6633 84.2062 43.83C83.8395 43.9967 83.4295 44.08 82.9762 44.08C82.4295 44.08 81.9428 43.9633 81.5162 43.73C81.0895 43.4967 80.7562 43.1633 80.5162 42.73C80.2762 42.2967 80.1562 41.79 80.1562 41.21C80.1562 40.63 80.2728 40.1233 80.5062 39.69C80.7462 39.2567 81.0795 38.9233 81.5062 38.69C81.9328 38.4567 82.4228 38.34 82.9762 38.34C83.5162 38.34 83.9962 38.4533 84.4162 38.68C84.8362 38.9067 85.1628 39.23 85.3962 39.65C85.6362 40.07 85.7562 40.56 85.7562 41.12ZM84.0062 40.67C84.0062 40.3767 83.9062 40.1433 83.7062 39.97C83.5062 39.7967 83.2562 39.71 82.9562 39.71C82.6695 39.71 82.4262 39.7933 82.2262 39.96C82.0328 40.1267 81.9128 40.3633 81.8662 40.67H84.0062ZM106.587 42.68H108.827V44H104.877V36.98H106.587V42.68ZM118.553 37.84C118.253 37.84 118.006 37.7533 117.813 37.58C117.626 37.4 117.533 37.18 117.533 36.92C117.533 36.6533 117.626 36.4333 117.813 36.26C118.006 36.08 118.253 35.99 118.553 35.99C118.846 35.99 119.086 36.08 119.273 36.26C119.466 36.4333 119.563 36.6533 119.563 36.92C119.563 37.18 119.466 37.4 119.273 37.58C119.086 37.7533 118.846 37.84 118.553 37.84ZM119.403 38.42V44H117.693V38.42H119.403ZM135.812 38.36C136.506 38.36 137.056 38.57 137.462 38.99C137.876 39.41 138.082 39.9933 138.082 40.74V44H136.382V40.97C136.382 40.61 136.286 40.3333 136.092 40.14C135.906 39.94 135.646 39.84 135.312 39.84C134.979 39.84 134.716 39.94 134.522 40.14C134.336 40.3333 134.242 40.61 134.242 40.97V44H132.542V40.97C132.542 40.61 132.446 40.3333 132.252 40.14C132.066 39.94 131.806 39.84 131.472 39.84C131.139 39.84 130.876 39.94 130.682 40.14C130.496 40.3333 130.402 40.61 130.402 40.97V44H128.692V38.42H130.402V39.12C130.576 38.8867 130.802 38.7033 131.082 38.57C131.362 38.43 131.679 38.36 132.032 38.36C132.452 38.36 132.826 38.45 133.152 38.63C133.486 38.81 133.746 39.0667 133.932 39.4C134.126 39.0933 134.389 38.8433 134.722 38.65C135.056 38.4567 135.419 38.36 135.812 38.36ZM148.188 37.84C147.888 37.84 147.642 37.7533 147.448 37.58C147.262 37.4 147.168 37.18 147.168 36.92C147.168 36.6533 147.262 36.4333 147.448 36.26C147.642 36.08 147.888 35.99 148.188 35.99C148.482 35.99 148.722 36.08 148.908 36.26C149.102 36.4333 149.198 36.6533 149.198 36.92C149.198 37.18 149.102 37.4 148.908 37.58C148.722 37.7533 148.482 37.84 148.188 37.84ZM149.038 38.42V44H147.328V38.42H149.038ZM161.437 42.55V44H160.567C159.947 44 159.464 43.85 159.117 43.55C158.771 43.2433 158.597 42.7467 158.597 42.06V39.84H157.917V38.42H158.597V37.06H160.307V38.42H161.427V39.84H160.307V42.08C160.307 42.2467 160.347 42.3667 160.427 42.44C160.507 42.5133 160.641 42.55 160.827 42.55H161.437ZM175.7 41.12C175.7 41.28 175.69 41.4467 175.67 41.62H171.8C171.827 41.9667 171.937 42.2333 172.13 42.42C172.33 42.6 172.573 42.69 172.86 42.69C173.287 42.69 173.583 42.51 173.75 42.15H175.57C175.477 42.5167 175.307 42.8467 175.06 43.14C174.82 43.4333 174.517 43.6633 174.15 43.83C173.783 43.9967 173.373 44.08 172.92 44.08C172.373 44.08 171.887 43.9633 171.46 43.73C171.033 43.4967 170.7 43.1633 170.46 42.73C170.22 42.2967 170.1 41.79 170.1 41.21C170.1 40.63 170.217 40.1233 170.45 39.69C170.69 39.2567 171.023 38.9233 171.45 38.69C171.877 38.4567 172.367 38.34 172.92 38.34C173.46 38.34 173.94 38.4533 174.36 38.68C174.78 38.9067 175.107 39.23 175.34 39.65C175.58 40.07 175.7 40.56 175.7 41.12ZM173.95 40.67C173.95 40.3767 173.85 40.1433 173.65 39.97C173.45 39.7967 173.2 39.71 172.9 39.71C172.613 39.71 172.37 39.7933 172.17 39.96C171.977 40.1267 171.857 40.3633 171.81 40.67H173.95ZM184.312 41.2C184.312 40.6267 184.419 40.1233 184.632 39.69C184.852 39.2567 185.149 38.9233 185.522 38.69C185.895 38.4567 186.312 38.34 186.772 38.34C187.139 38.34 187.472 38.4167 187.772 38.57C188.079 38.7233 188.319 38.93 188.492 39.19V36.6H190.202V44H188.492V43.2C188.332 43.4667 188.102 43.68 187.802 43.84C187.509 44 187.165 44.08 186.772 44.08C186.312 44.08 185.895 43.9633 185.522 43.73C185.149 43.49 184.852 43.1533 184.632 42.72C184.419 42.28 184.312 41.7733 184.312 41.2ZM188.492 41.21C188.492 40.7833 188.372 40.4467 188.132 40.2C187.899 39.9533 187.612 39.83 187.272 39.83C186.932 39.83 186.642 39.9533 186.402 40.2C186.169 40.44 186.052 40.7733 186.052 41.2C186.052 41.6267 186.169 41.9667 186.402 42.22C186.642 42.4667 186.932 42.59 187.272 42.59C187.612 42.59 187.899 42.4667 188.132 42.22C188.372 41.9733 188.492 41.6367 188.492 41.21Z" fill="black"/>
<defs>
<linearGradient id="paint0_linear_32_2348" x1="96" y1="0" x2="96" y2="44" gradientUnits="userSpaceOnUse">
<stop offset="0.509912" stop-color="#8BC53F" stop-opacity="0.75"/>
<stop offset="1" stop-color="#A2A2A2"/>
</linearGradient>
</defs>
</svg>
